PathFileType	4	(X/Y/Z)	RBDS027\RBDS027runT35.trc
DataRate	CameraRate	NumFrames	NumMarkers	Units	OrigDataRate	OrigDataStartFrame	OrigNumFrames
150.000000	150.000000	4	33	mm	150.000000	1687	4500
Frame#	Time	L.ASIS			L.Heel.Bottom			L.Heel.Lateral			L.Heel.Top			L.Iliac.Crest			L.MT1			L.MT5			L.PSIS			L.Shank.Bottom.Lateral			L.Shank.Bottom.Medial			L.Shank.Top.Lateral			L.Shank.Top.Medial			L.Thigh.Bottom.Lateral			L.Thigh.Bottom.Medial			L.Thigh.Top.Lateral			L.Thigh.Top.Medial			R.ASIS			R.ASY			R.Heel.Bottom			R.Heel.Lateral			R.Heel.Top			R.Iliac.Crest			R.MT1			R.MT5			R.PSIS			R.Shank.Bottom.Lateral			R.Shank.Bottom.Medial			R.Shank.Top.Lateral			R.Shank.Top.Medial			R.Thigh.Bottom.Lateral			R.Thigh.Bottom.Medial			R.Thigh.Top.Lateral			R.Thigh.Top.Medial			
		X1	Y1	Z1	X2	Y2	Z2	X3	Y3	Z3	X4	Y4	Z4	X5	Y5	Z5	X6	Y6	Z6	X7	Y7	Z7	X8	Y8	Z8	X9	Y9	Z9	X10	Y10	Z10	X11	Y11	Z11	X12	Y12	Z12	X13	Y13	Z13	X14	Y14	Z14	X15	Y15	Z15	X16	Y16	Z16	X17	Y17	Z17	X18	Y18	Z18	X19	Y19	Z19	X20	Y20	Z20	X21	Y21	Z21	X22	Y22	Z22	X23	Y23	Z23	X24	Y24	Z24	X25	Y25	Z25	X26	Y26	Z26	X27	Y27	Z27	X28	Y28	Z28	X29	Y29	Z29	X30	Y30	Z30	X31	Y31	Z31	X32	Y32	Z32	X33	Y33	Z33	

1688	11.24666666666667	2180.82711280688	894.0411264892543	915.110404743412	1486.546592042896	419.2919839658174	1024.758972057458	1501.620200801964	397.0094382141714	973.4020217785419	1535.449283825364	411.2117854863394	1017.627016955601	2156.16163986734	986.0117734365029	898.3472278702716	1522.093811997823	203.5882567997055	1026.96942006729	1497.853303359613	250.7278527018693	928.1764369436763	2030.401995849569	956.6470893411314	1008.37213478649	1600.805328227063	398.0600411566965	943.9352925816574	1591.264119246025	420.1235742624709	994.1416962434326	1660.306548796989	451.3689903355382	934.1219530149812	1653.2450397055	471.150880811541	983.5985127088303	1934.578047896327	608.1097100536291	889.2395508408424	1899.488051065072	629.8752174589233	947.513512586051	1974.287764170895	710.3365505472256	878.8258317825109	1944.114227637609	729.9682702560036	936.4755993788805	2194.651071356545	905.2255829074064	1169.336652912954	2496.75582861202	162.2998245260001	1130.886103449002	2377.760713364188	16.10355247372498	1102.957952008532	2394.640599347478	40.9452197005315	1149.612715405127	2360.753287753916	58.33488271131602	1110.406745859427	2143.9357941038	991.8972571238163	1202.087553101639	2552.936420317345	149.7922896655475	1076.220311049268	2527.206505047904	111.163190329761	1186.49822192272	2035.776250585199	949.5570384732173	1106.594873876243	2358.635843061988	162.8512817357533	1169.206172481399	2326.854256171495	160.9423798110476	1129.008531074326	2317.850330608466	233.0589487355577	1195.461144115367	2286.348099958032	227.2135817338773	1152.306312205637	2227.666339084079	547.0024725964693	1222.582127976927	2172.856584533713	526.1174746166848	1178.879614376053	2176.04269052009	642.4626770431455	1238.692426666497	2122.278611698173	622.2487327770656	1199.54413798451	
1689	11.25333333333333	2181.72632288707	891.282494614539	915.1687979894758	1489.6404125289	436.0528871042217	1022.469938132748	1503.462259626676	411.6117199470524	971.8777892190466	1537.981456185091	424.9195699808661	1015.902903030072	2154.679196668133	983.9594867521417	898.2221066589473	1512.634737864518	219.0852645480351	1030.665315088957	1491.244387772154	264.9639092297556	930.5257619854292	2030.618893480835	952.5858911592377	1008.510516306039	1602.181041150701	406.3521311052077	943.1729700982091	1593.53386709102	429.9884097467105	992.8303826204973	1664.569667389727	456.1428173897453	932.7539816698616	1658.24031641388	477.390317302013	981.6863562652791	1941.413206358766	599.2425679248912	887.3540889512956	1905.034243827465	620.581747667395	945.081925262753	1979.003773132634	702.2702630441895	876.8818058905879	1947.339507869564	721.6300956252004	933.8191562627451	2194.459229081937	902.9246449409038	1169.883298369254	2494.040146328328	158.1078320748562	1130.461672883969	2373.5434854238	14.95395967634622	1100.025132590419	2390.511392954031	38.86620562301855	1147.058887923723	2357.333441122085	57.21066943246122	1107.84140764612	2144.388882474609	988.6357643997546	1202.573777833627	2550.151785819451	145.5039406942541	1075.893005119965	2523.214984256624	105.8405207990111	1185.407433021455	2035.651144852814	945.6441531812825	1106.559547376356	2355.797779632193	159.4864497193491	1167.346138870034	2324.570636142081	158.1043657802651	1126.597576908752	2315.427815407581	229.9093923109645	1193.520137186908	2284.497809977805	224.640698656043	1149.907087834304	2227.598015731094	544.6213666639867	1222.354159081769	2173.151479144894	523.7181365476459	1178.172329574785	2175.239854232505	639.7731346858079	1238.275078928108	2122.116482529826	619.5003864366678	1198.421067059253	
1690	11.26	2182.749720510514	887.802022677472	915.3437329893482	1495.188586673369	452.4349208044534	1019.995564383486	1507.305656042903	425.7621627211895	970.2223187977098	1542.681853505826	438.0941479095469	1013.818776222058	2153.310414547834	980.9594400453528	897.9862807956922	1504.819057442269	235.0090132143357	1034.584999072442	1485.88859835586	279.3235133207263	933.1701351253262	2030.843212631762	947.5700920870449	1008.328950578281	1605.011848630855	414.0587570179692	942.2416950918156	1597.362123845327	439.2831730654536	991.2760991644028	1670.044944600333	460.1916015479737	931.1296491758105	1664.582397435467	482.9219202804987	979.4609193703483	1948.432509926715	589.6877210204433	885.5879642262794	1910.783972868013	610.4794272257398	942.794979825696	1983.749073276129	693.5422799404225	875.1227613914917	1950.624316015132	712.5077958863595	931.3694857061785	2193.953998640804	900.3722924454673	1170.633998048069	2489.286912261701	151.8808224971257	1129.736772749857	2365.522956528552	13.83616576882775	1096.97487628626	2382.869356350352	36.68338974893008	1144.330628343824	2350.800744189414	56.26085344816366	1104.964235829478	2144.581717774785	985.2693458399775	1202.903503550561	2545.050672800709	138.1831676350909	1075.380864904343	2516.344289857494	98.4042059471242	1184.160667670054	2035.292057716779	941.05709078627	1106.164678040453	2351.035392140118	155.4776906942131	1165.155935609126	2320.337963182908	154.8982641548171	1123.895077642009	2311.756624110803	226.4683133145492	1191.234999623065	2281.340133595992	222.0464887748147	1147.208280564006	2228.39881658786	542.4654194331363	1221.837910923328	2174.285247697322	521.1585398078995	1177.460842946234	2174.825888047918	637.0073395387416	1237.58280943718	2122.368854606168	616.3474798519767	1197.188594506036	
1691	11.26666666666667	2183.920376079697	883.6103895476532	915.6700191734756	1503.141870435298	468.1432678082023	1017.45353048697	1513.108999624465	439.2889616521386	968.5231113582648	1549.489190247759	450.5142078493349	1011.477975356973	2152.202430876282	976.9613995017197	897.6697619533345	1498.863121538665	251.1775638037823	1038.57784117063	1481.93902342604	293.7715628257465	936.0206578946473	2031.089801080064	941.6305494739358	1007.807899212637	1609.267562496249	421.1325595457864	941.1979951344559	1602.721942880807	447.9143881037812	989.5480614494384	1676.675544241297	463.5142735830256	929.3118613921771	1672.21459346329	487.7020159446345	976.9991433801008	1955.519161919683	579.6866536186665	884.0268044512617	1916.67623345968	599.8178964583626	940.7638738976191	1988.47302145591	684.3607287600498	873.6315651627357	1953.977564931705	702.816384046911	929.2419511819865	2193.130844340292	897.5151043182599	1171.582464305126	2482.665735062396	143.9297975786783	1128.664172620003	2354.093070610735	12.86763251406695	1093.981753944821	2372.085793449842	34.58381661542528	1141.570377488958	2341.491783972748	55.56631645768245	1101.905802490872	2144.446993097838	981.7511218393371	1203.080674359965	2537.799895092971	128.1920670690548	1074.652921096834	2506.866327101792	89.34563472706283	1182.807227733884	2034.700662624776	935.8263019993699	1105.399072986165	2344.60953189778	150.9826535456683	1162.732384524045	2314.357236407756	151.4402588067645	1121.061460021321	2307.067439406513	222.8331619482547	1188.737686702064	2277.050940649829	219.4875375172843	1144.395812398922	2229.897266028624	540.3873713235107	1221.091836331949	2176.085367216606	518.3406261560577	1176.767325951776	2174.721307691585	634.0555163288432	1236.669005219863	2122.921651210069	612.7193426700265	1195.903526499082	
